<svg width="0" height="0" fill="none" style="visibility: hidden; position: absolute;" aria-hidden="true">
    <symbol id="basket" viewBox="0 0 20 20" fill="none" xmlns="http://www.w3.org/2000/svg">
        <path d="M7.54548 18.1818C7.99735 18.1818 8.36366 17.8155 8.36366 17.3636C8.36366 16.9118 7.99735 16.5455 7.54548 16.5455C7.09361 16.5455 6.72729 16.9118 6.72729 17.3636C6.72729 17.8155 7.09361 18.1818 7.54548 18.1818Z" stroke="#9B9B9B" stroke-width="2" stroke-linecap="round" stroke-linejoin="round"/>
        <path d="M16.5455 18.1818C16.9973 18.1818 17.3637 17.8155 17.3637 17.3636C17.3637 16.9118 16.9973 16.5455 16.5455 16.5455C16.0936 16.5455 15.7273 16.9118 15.7273 17.3636C15.7273 17.8155 16.0936 18.1818 16.5455 18.1818Z" stroke="#9B9B9B" stroke-width="2" stroke-linecap="round" stroke-linejoin="round"/>
        <path d="M1 1H4.27273L6.46545 11.9555C6.54027 12.3321 6.7452 12.6705 7.04436 12.9113C7.34351 13.1522 7.71784 13.2801 8.10182 13.2727H16.0545C16.4385 13.2801 16.8129 13.1522 17.112 12.9113C17.4112 12.6705 17.6161 12.3321 17.6909 11.9555L19 5.09091H5.09091" stroke="#9B9B9B" stroke-width="2" stroke-linecap="round" stroke-linejoin="round"/>
    </symbol>
    <symbol id="favorite" viewBox="0 0 19 17" fill="transparent" xmlns="http://www.w3.org/2000/svg">
        <g clip-path="url(#clip0_60_590__favorite)">
            <path d="M12.9537 0C14.3511 0 15.5249 0.47123 16.4751 1.41369C17.4253 2.35615 17.9004 3.5065 17.9004 4.86475C17.9004 5.53002 17.7607 6.20221 17.4812 6.88134C17.2017 7.56047 16.8943 8.16336 16.5589 8.69003C16.2235 9.2167 15.6576 9.89582 14.8611 10.7274C14.0646 11.559 13.3939 12.2312 12.8489 12.744C12.3039 13.2568 11.4305 14.0399 10.2288 15.0932L8.92924 16.2574L7.62968 15.1348C6.45588 14.0537 5.58951 13.2568 5.03056 12.744C4.4716 12.2312 3.79388 11.559 2.99737 10.7274C2.20087 9.89582 1.63493 9.2167 1.29956 8.69003C0.96419 8.16336 0.663754 7.56047 0.398252 6.88134C0.132751 6.20221 0 5.53002 0 4.86475C0 3.5065 0.475108 2.35615 1.42532 1.41369C2.37554 0.47123 3.53536 0 4.90479 0C6.52575 0 7.86723 0.623686 8.92924 1.87106C9.99124 0.623686 11.3327 0 12.9537 0ZM9.01308 13.8043C10.3825 12.5846 11.3816 11.6768 12.0105 11.0808C12.6393 10.4849 13.331 9.77109 14.0856 8.93951C14.8401 8.10792 15.3642 7.38029 15.6576 6.7566C15.9511 6.13292 16.0978 5.5023 16.0978 4.86475C16.0978 3.97773 15.7973 3.24317 15.1965 2.66106C14.5956 2.07895 13.848 1.7879 12.9537 1.7879C12.2829 1.7879 11.6471 1.98194 11.0463 2.37001C10.4454 2.75808 10.0192 3.25703 9.76766 3.86686H8.09081C7.86723 3.25703 7.455 2.75808 6.85413 2.37001C6.25326 1.98194 5.60348 1.7879 4.90479 1.7879C4.01047 1.7879 3.26986 2.07895 2.68296 2.66106C2.09606 3.24317 1.80262 3.97773 1.80262 4.86475C1.80262 5.5023 1.94235 6.13292 2.22183 6.7566C2.5013 7.38029 3.02532 8.10792 3.79388 8.93951C4.56243 9.77109 5.26112 10.4849 5.88994 11.0808C6.51876 11.6768 7.50391 12.5846 8.84539 13.8043L8.92924 13.8874L9.01308 13.8043Z" fill="currentColor"/>
        </g>
        <defs>
            <clipPath id="clip0_60_590__favorite">
                <rect width="18.11" height="16.299" fill="white"/>
            </clipPath>
        </defs>
    </symbol>
    <symbol id="profile" viewBox="0 0 18 18" fill="none" xmlns="http://www.w3.org/2000/svg">
        <path fill-rule="evenodd" clip-rule="evenodd" d="M0 9C0 4.1211 4.1211 0 9 0C13.8789 0 18 4.1211 18 9C18 11.871 16.5672 14.4702 14.4 16.1316V16.2H14.3082C12.807 17.3205 10.9683 18 9 18C7.0317 18 5.193 17.3205 3.6918 16.2H3.6V16.1316C1.4328 14.4702 0 11.8701 0 9ZM6.41112 13.7124C5.93239 14.0975 5.59923 14.6344 5.4666 15.2343C6.5178 15.8436 7.7256 16.2 9 16.2C10.2744 16.2 11.4822 15.8436 12.5334 15.2343C12.4006 14.6344 12.0674 14.0977 11.5887 13.7126C11.11 13.3275 10.5144 13.1169 9.9 13.1157H8.1C7.48557 13.1168 6.88986 13.3272 6.41112 13.7124ZM12.391 12.0705C13.129 12.5617 13.7057 13.2596 14.049 14.0769C15.3693 12.7638 16.2 10.9584 16.2 9C16.2 5.0967 12.9033 1.8 9 1.8C5.0967 1.8 1.8 5.0967 1.8 9C1.8 10.9584 2.6307 12.7638 3.951 14.0769C4.2943 13.2596 4.87104 12.5617 5.60904 12.0705C6.34704 11.5794 7.21351 11.3168 8.1 11.3157H9.9C10.7865 11.3168 11.653 11.5794 12.391 12.0705ZM5.40001 7.2C5.40001 5.148 6.94801 3.6 9.00001 3.6C11.052 3.6 12.6 5.148 12.6 7.2C12.6 9.252 11.052 10.8 9.00001 10.8C6.94801 10.8 5.40001 9.252 5.40001 7.2ZM7.20001 7.2C7.20001 8.2602 7.93981 9 9.00001 9C10.0602 9 10.8 8.2602 10.8 7.2C10.8 6.1398 10.0602 5.4 9.00001 5.4C7.93981 5.4 7.20001 6.1398 7.20001 7.2Z" fill="#9B9B9B"/>
    </symbol>
        <symbol id="search" viewBox="0 0 16 16" fill="none" xmlns="http://www.w3.org/2000/svg">
        <path d="M15.25 15.25L11.8855 11.8795L15.25 15.25ZM13.75 7.375C13.75 9.06576 13.0784 10.6873 11.8828 11.8828C10.6873 13.0784 9.06576 13.75 7.375 13.75C5.68424 13.75 4.06274 13.0784 2.86719 11.8828C1.67165 10.6873 1 9.06576 1 7.375C1 5.68424 1.67165 4.06274 2.86719 2.86719C4.06274 1.67165 5.68424 1 7.375 1C9.06576 1 10.6873 1.67165 11.8828 2.86719C13.0784 4.06274 13.75 5.68424 13.75 7.375V7.375Z" stroke="#E4E4E4" stroke-width="2" stroke-linecap="round"/>
    </symbol>
      <symbol id="plus"  viewBox="0 0 12 12" fill="currentColor" xmlns="http://www.w3.org/2000/svg">
          <path d="M10.6653 5.13122H7.20214V1.66821C7.20214 0.332846 5.13114 0.332846 5.13114 1.66821V5.13122H1.668C0.332935 5.13122 0.332935 7.20215 1.668 7.20215H5.13114V10.6652C5.13114 12.0005 7.20214 12.0005 7.20214 10.6652V7.20215H10.6653C12.0005 7.20215 12.0005 5.13122 10.6653 5.13122Z" fill="currentColor"/>
    </symbol>
        <symbol id="checked" viewBox="0 0 12 12" fill="none" xmlns="http://www.w3.org/2000/svg">
        <mask id="mask0_202972_13__checked" style="mask-type:luminance" maskUnits="userSpaceOnUse" x="0" y="0" width="12" height="12">
            <path d="M11.3334 0.666687H0.666687V11.3334H11.3334V0.666687Z" fill="white"/>
        </mask>
        <g mask="url(#mask0_202972_13__checked)">
            <g filter="url(#filter0_d_202972_13__checked)">
                <path d="M9.6567 1.62066C9.8394 1.43626 10.0876 1.33176 10.3471 1.32986C10.6066 1.32786 10.8563 1.42876 11.0416 1.61046C11.227 1.79206 11.3329 2.03976 11.3362 2.29926C11.3395 2.55876 11.24 2.80896 11.0594 2.99536L5.8327 9.52936C5.7429 9.62596 5.6346 9.70356 5.5141 9.75746C5.3937 9.81136 5.2636 9.84036 5.1317 9.84286C4.9998 9.84536 4.8687 9.82126 4.7463 9.77196C4.6239 9.72266 4.5127 9.64916 4.4194 9.55596L0.954004 6.09196C0.769904 5.90776 0.666504 5.65786 0.666504 5.39746C0.666604 5.13696 0.770104 4.88716 0.954404 4.70296C1.1386 4.51886 1.3885 4.41546 1.6489 4.41546C1.9094 4.41556 2.1592 4.51906 2.3434 4.70336L5.084 7.44466L9.6307 1.65136C9.639 1.64076 9.6472 1.63006 9.6567 1.62066Z" fill="white"/>
            </g>
        </g>
        <defs>
            <filter id="filter0_d_202972_13__checked" x="0.666504" y="1.32983" width="10.6698" height="10.5132" filterUnits="userSpaceOnUse" color-interpolation-filters="sRGB">
                <feFlood flood-opacity="0" result="BackgroundImageFix"/>
                <feColorMatrix in="SourceAlpha" type="matrix" values="0 0 0 0 0 0 0 0 0 0 0 0 0 0 0 0 0 0 127 0" result="hardAlpha"/>
                <feOffset dy="2"/>
                <feColorMatrix type="matrix" values="0 0 0 0 0 0 0 0 0 0 0 0 0 0 0 0 0 0 0.1 0"/>
                <feBlend mode="normal" in2="BackgroundImageFix" result="effect1_dropShadow_202972_13"/>
                <feBlend mode="normal" in="SourceGraphic" in2="effect1_dropShadow_202972_13" result="shape"/>
            </filter>
        </defs>
    </symbol>
        <symbol id="close" viewBox="0 0 10 10" fill="none" xmlns="http://www.w3.org/2000/svg">
        <path d="M9.0799 7.61553L6.6311 5.16673L9.07982 2.71801C10.0241 1.77376 8.55964 0.309342 7.6154 1.25359L5.16668 3.70231L2.71787 1.2535C1.77384 0.309466 0.309467 1.77384 1.2535 2.71787L3.70231 5.16668L1.25359 7.61539C0.309343 8.55964 1.77376 10.0241 2.71801 9.07982L5.16673 6.6311L7.61553 9.0799C8.55969 10.0241 10.0241 8.55969 9.0799 7.61553Z" fill="#B5B5B5"/>
    </symbol>
</svg>